# xmcd
#
# Track frame offsets:
#	150
#	11620
#	22302
#	31042
#	40158
#	49008
#	57966
#	69582
#	79388
#	89893
#	99140
#	107739
#	117718
#	126769
#	138919
#	151240
#	164345
#	175629
#	186956
#
# Disc length: 2744 seconds
#
# Revision: 0
# Processed by: cddbd v1.5.2PL0 Copyright (c) Steve Scherf et al.
# Submitted via: EasyCDDAExtractor 16.0.1.1
#
DISCID=000ab613
DTITLE=Howard Crockett - My Lil's Run Off
DYEAR=1900
DGENRE=Country
TTITLE0=You've Got Me Lyin'
TTITLE1=If You'll Let Me
TTITLE2=Branded
TTITLE3=Night Rider
TTITLE4=I Love This Girl
TTITLE5=Steamboat Bill
TTITLE6=Deep Elm Dave
TTITLE7=Going Down To Soldiers
TTITLE8=Out Of Bounds Again
TTITLE9=Break Away Billy Boy
TTITLE10=Jesse And The Glendale Train
TTITLE11=Trail Of Tears
TTITLE12=My Li'l Run Off
TTITLE13=Natural Man
TTITLE14=Country Teaching
TTITLE15=Love Ain't Straight
TTITLE16=I'll Take You To The Mountain
TTITLE17=Love Your Sins Away
TTITLE18=Forver And A Day
EXTD=
EXTT0=
EXTT1=
EXTT2=
EXTT3=
EXTT4=
EXTT5=
EXTT6=
EXTT7=
EXTT8=
EXTT9=
EXTT10=
EXTT11=
EXTT12=
EXTT13=
EXTT14=
EXTT15=
EXTT16=
EXTT17=
EXTT18=
PLAYORDER=
